<svg width="60" height="60" viewBox="0 0 60 60" fill="none" xmlns="http://www.w3.org/2000/svg">
<path d="M30 3.75C26.5528 3.75 23.1394 4.42898 19.9546 5.74816C16.7698 7.06735 13.876 9.00091 11.4384 11.4384C9.00091 13.876 7.06735 16.7698 5.74816 19.9546C4.42898 23.1394 3.75 26.5528 3.75 30C3.75 33.4472 4.42898 36.8606 5.74816 40.0454C7.06735 43.2302 9.00091 46.124 11.4384 48.5616C13.876 50.9991 16.7698 52.9327 19.9546 54.2518C23.1394 55.571 26.5528 56.25 30 56.25C36.9619 56.25 43.6387 53.4844 48.5616 48.5616C53.4844 43.6387 56.25 36.9619 56.25 30C56.25 23.0381 53.4844 16.3613 48.5616 11.4384C43.6387 6.51562 36.9619 3.75 30 3.75ZM0 30C0 22.0435 3.16071 14.4129 8.7868 8.7868C14.4129 3.16071 22.0435 0 30 0C37.9565 0 45.5871 3.16071 51.2132 8.7868C56.8393 14.4129 60 22.0435 60 30C60 37.9565 56.8393 45.5871 51.2132 51.2132C45.5871 56.8393 37.9565 60 30 60C22.0435 60 14.4129 56.8393 8.7868 51.2132C3.16071 45.5871 0 37.9565 0 30ZM18.75 22.5C18.75 21.5054 19.1451 20.5516 19.8484 19.8484C20.5516 19.1451 21.5054 18.75 22.5 18.75H37.5C38.4946 18.75 39.4484 19.1451 40.1516 19.8484C40.8549 20.5516 41.25 21.5054 41.25 22.5V37.5C41.25 38.4946 40.8549 39.4484 40.1516 40.1516C39.4484 40.8549 38.4946 41.25 37.5 41.25H22.5C21.5054 41.25 20.5516 40.8549 19.8484 40.1516C19.1451 39.4484 18.75 38.4946 18.75 37.5V22.5Z" fill="#6B76F6"/>
</svg>
