<svg width="14" height="66" viewBox="0 0 14 66" fill="none" xmlns="http://www.w3.org/2000/svg">
<path fill-rule="evenodd" clip-rule="evenodd" d="M0.499802 0V11V11.9677V55.9677C0.499802 60.04 1.51837 62.4854 3.31871 63.8792C5.0886 65.2495 7.49438 65.5 9.9998 65.5H12.9998C13.2759 65.5 13.4998 65.2761 13.4998 65C13.4998 64.7239 13.2759 64.5 12.9998 64.5H9.9998C7.50522 64.5 5.411 64.2344 3.93089 63.0885C2.48123 61.9662 1.4998 59.8955 1.4998 55.9677V17.563C1.96055 18.5431 2.57247 19.3015 3.31871 19.8792C5.0886 21.2495 7.49438 21.5 9.9998 21.5H12.9998C13.2759 21.5 13.4998 21.2761 13.4998 21C13.4998 20.7239 13.2759 20.5 12.9998 20.5H9.9998C7.50522 20.5 5.411 20.2344 3.93089 19.0885C2.48123 17.9662 1.4998 15.8955 1.4998 11.9677V11V0H0.499802Z" fill="white" fill-opacity="0.1"/>
</svg>
