<svg width="200" height="200" viewBox="0 0 200 200" fill="none" xmlns="http://www.w3.org/2000/svg">
<circle cx="100" cy="100" r="45" fill="#6B76F6" fill-opacity="0.5"/>
<circle cx="100" cy="100" r="72.5" stroke="#6B76F6" stroke-opacity="0.8" stroke-width="55"/>
<path d="M98.2775 71.4695C96.828 71.5826 95.4068 71.861 94.0309 72.2772V79.8935H90.9109V73.5114C89.5249 74.1975 88.2106 75.0263 87.0178 76.0109C87.0115 76.0161 87.0067 76.023 87.0005 76.0282V107.138C87.0067 107.143 87.0115 107.15 87.0178 107.156C90.6373 110.154 95.2147 111.757 99.8099 111.766C104.511 111.765 109.054 110.084 112.602 107.156C112.608 107.15 112.613 107.143 112.619 107.138V76.0282C112.613 76.0229 112.608 76.016 112.602 76.0108C111.417 75.0294 110.121 74.2146 108.764 73.5391V79.8935H105.644V72.298C104.26 71.8763 102.836 71.5871 101.398 71.4695V79.8936H98.2776L98.2775 71.4695ZM80.8748 96.3291V112.259C82.0163 113.312 83.2453 114.269 84.5495 115.122C87.5542 117.088 90.9561 118.494 94.6098 119.185V117.348H105.01V119.185C108.664 118.494 112.065 117.088 115.07 115.122C116.374 114.269 117.603 113.312 118.745 112.259V96.3291H115.07V110.428C110.906 113.829 105.597 115.871 99.8099 115.871C94.023 115.871 88.7138 113.829 84.5496 110.428V96.3291H80.8748ZM105.01 119.185C103.325 119.504 101.587 119.67 99.8098 119.67C98.033 119.67 96.2943 119.504 94.6098 119.185V124.368H88.4564V128.268H111.163V124.368H105.01V119.185Z" fill="white"/>
</svg>
