<svg width="38" height="38" viewBox="0 0 38 38" fill="none" xmlns="http://www.w3.org/2000/svg">
<rect width="38" height="38" rx="19" fill="#335CA6"/>
<path d="M27.0001 19C26.9994 14.7444 23.6672 11.2342 19.4174 11.0122C15.1676 10.7902 11.4878 13.9341 11.0437 18.1665C10.5997 22.3988 13.5467 26.2381 17.7501 26.903V21.3125L15.7191 21.3125L15.7191 19H17.7501V17.2375C17.7501 15.2325 18.9446 14.125 20.7716 14.125C21.3716 14.1333 21.9702 14.1855 22.5626 14.281V16.25H21.5536C21.2053 16.2038 20.8549 16.3184 20.6013 16.5616C20.3477 16.8048 20.2184 17.1501 20.2501 17.5V19L22.4691 19L22.1141 21.3125H20.2501V26.903C24.1379 26.288 27.0007 22.9362 27.0001 19Z" fill="white"/>
</svg>
