<svg width="38" height="38" viewBox="0 0 38 38" fill="none" xmlns="http://www.w3.org/2000/svg">
<rect width="38" height="38" rx="19" fill="#C71610"/>
<path d="M26.1866 17.6365L19.0276 17.6365V20.7045L23.0851 20.7045C22.4351 22.75 20.8351 23.432 18.9951 23.432C17.0358 23.4346 15.3073 22.1504 14.7442 20.2738C14.1811 18.3972 14.917 16.3735 16.554 15.297C18.191 14.2204 20.3406 14.3465 21.8406 15.607L24.0701 13.4835C21.6008 11.209 17.9207 10.8526 15.0608 12.6109C12.2009 14.3692 10.8579 17.8139 11.7728 21.044C12.6878 24.2741 15.6379 26.5027 18.9951 26.5C23.1306 26.5 26.8686 23.7725 26.1866 17.6365Z" fill="white"/>
</svg>
