<svg width="40" height="40" viewBox="0 0 40 40" fill="none" xmlns="http://www.w3.org/2000/svg">
<rect width="40" height="40" rx="20" fill="#6B76F6" fill-opacity="0.1"/>
<path d="M15.4626 13.6632C15.4472 13.3236 15.501 12.9844 15.6209 12.6656C15.7408 12.3468 15.9244 12.0548 16.1609 11.8067C16.3973 11.5586 16.6819 11.3595 16.9978 11.221C17.3137 11.0826 17.6546 11.0076 18.0004 11.0006C18.3463 10.9935 18.69 11.0544 19.0116 11.1798C19.3331 11.3052 19.6258 11.4925 19.8726 11.7307C20.1194 11.9688 20.3152 12.2531 20.4485 12.5667C20.5818 12.8804 20.65 13.217 20.649 13.5569V24.6044M15.4626 13.6632C14.9543 13.7916 14.4823 14.032 14.0825 14.3662C13.6828 14.7004 13.3656 15.1196 13.1551 15.5921C12.9446 16.0646 12.8463 16.5779 12.8676 17.0932C12.8889 17.6086 13.0293 18.1124 13.278 18.5665M15.4626 13.6632C15.4797 14.0742 15.5978 14.4751 15.8068 14.8316M13.278 18.5665C12.8406 18.9157 12.4966 19.3647 12.276 19.8743C12.0554 20.384 11.9649 20.9388 12.0123 21.4907C12.0597 22.0426 12.2436 22.5747 12.548 23.0408C12.8524 23.5069 13.2681 23.8928 13.7589 24.1651M13.278 18.5665C13.4363 18.4399 13.6056 18.3282 13.784 18.2309M13.7589 24.1651C13.6983 24.6259 13.7345 25.094 13.8652 25.5405C13.9959 25.987 14.2184 26.4025 14.5189 26.7612C14.8194 27.1199 15.1916 27.4143 15.6124 27.6261C16.0332 27.838 16.4938 27.9628 16.9656 27.9929C17.4375 28.023 17.9106 27.9577 18.3558 27.801C18.8009 27.6444 19.2087 27.3998 19.5539 27.0822C19.8991 26.7647 20.1743 26.381 20.3627 25.9548C20.551 25.5286 20.6485 25.069 20.649 24.6044M13.7589 24.1651C14.278 24.4528 14.864 24.6047 15.46 24.6044M20.649 24.6044H25.8379C26.2967 24.6044 26.7366 24.7835 27.061 25.1022C27.3854 25.4209 27.5676 25.8533 27.5676 26.304V27.1538M18.0545 20.3554C18.7806 20.1044 19.4146 19.6475 19.8764 19.0424C20.3382 18.4374 20.6071 17.7113 20.649 16.9562M20.649 20.3554H24.1083M20.649 16.1063H27.5676M24.1083 16.1063V13.5569C24.1083 13.1062 24.2905 12.6739 24.6149 12.3551C24.9393 12.0364 25.3792 11.8573 25.8379 11.8573M24.5407 20.3554C24.5407 20.59 24.3471 20.7803 24.1083 20.7803C23.8695 20.7803 23.6759 20.59 23.6759 20.3554C23.6759 20.1207 23.8695 19.9305 24.1083 19.9305C24.3471 19.9305 24.5407 20.1207 24.5407 20.3554ZM26.2703 11.8573C26.2703 12.092 26.0767 12.2822 25.8379 12.2822C25.5991 12.2822 25.4055 12.092 25.4055 11.8573C25.4055 11.6227 25.5991 11.4324 25.8379 11.4324C26.0767 11.4324 26.2703 11.6227 26.2703 11.8573ZM28 27.1538C28 27.3885 27.8064 27.5787 27.5676 27.5787C27.3288 27.5787 27.1352 27.3885 27.1352 27.1538C27.1352 26.9192 27.3288 26.7289 27.5676 26.7289C27.8064 26.7289 28 26.9192 28 27.1538ZM28 16.1063C28 16.341 27.8064 16.5312 27.5676 16.5312C27.3288 16.5312 27.1352 16.341 27.1352 16.1063C27.1352 15.8717 27.3288 15.6814 27.5676 15.6814C27.8064 15.6814 28 15.8717 28 16.1063Z" stroke="#6368D1" stroke-width="2" stroke-linecap="round" stroke-linejoin="round"/>
</svg>
