<svg width="48" height="48" viewBox="0 0 48 48" fill="none" xmlns="http://www.w3.org/2000/svg">
<circle cx="24" cy="24" r="24" fill="#6B76F6" fill-opacity="0.1"/>
<path fill-rule="evenodd" clip-rule="evenodd" d="M36 24C36 27.1826 34.7357 30.2348 32.4853 32.4853C30.2348 34.7357 27.1826 36 24 36C20.8174 36 17.7652 34.7357 15.5147 32.4853C13.2643 30.2348 12 27.1826 12 24C12 20.8174 13.2643 17.7652 15.5147 15.5147C17.7652 13.2643 20.8174 12 24 12C27.1826 12 30.2348 13.2643 32.4853 15.5147C34.7357 17.7652 36 20.8174 36 24ZM19.5 21C19.5 20.6022 19.658 20.2206 19.9393 19.9393C20.2206 19.658 20.6022 19.5 21 19.5C21.3978 19.5 21.7794 19.658 22.0607 19.9393C22.342 20.2206 22.5 20.6022 22.5 21V27C22.5 27.3978 22.342 27.7794 22.0607 28.0607C21.7794 28.342 21.3978 28.5 21 28.5C20.6022 28.5 20.2206 28.342 19.9393 28.0607C19.658 27.7794 19.5 27.3978 19.5 27V21ZM27 19.5C26.6022 19.5 26.2206 19.658 25.9393 19.9393C25.658 20.2206 25.5 20.6022 25.5 21V27C25.5 27.3978 25.658 27.7794 25.9393 28.0607C26.2206 28.342 26.6022 28.5 27 28.5C27.3978 28.5 27.7794 28.342 28.0607 28.0607C28.342 27.7794 28.5 27.3978 28.5 27V21C28.5 20.6022 28.342 20.2206 28.0607 19.9393C27.7794 19.658 27.3978 19.5 27 19.5Z" fill="#6B76F6"/>
</svg>
