<svg width="48" height="48" viewBox="0 0 48 48" fill="none" xmlns="http://www.w3.org/2000/svg">
<circle cx="24" cy="24" r="24" fill="#6B76F6" fill-opacity="0.1"/>
<path fill-rule="evenodd" clip-rule="evenodd" d="M24 36C27.1826 36 30.2348 34.7357 32.4853 32.4853C34.7357 30.2348 36 27.1826 36 24C36 20.8174 34.7357 17.7652 32.4853 15.5147C30.2348 13.2643 27.1826 12 24 12C20.8174 12 17.7652 13.2643 15.5147 15.5147C13.2643 17.7652 12 20.8174 12 24C12 27.1826 13.2643 30.2348 15.5147 32.4853C17.7652 34.7357 20.8174 36 24 36ZM23.3325 19.752C23.1066 19.6013 22.844 19.5147 22.5728 19.5015C22.3015 19.4884 22.0318 19.5491 21.7924 19.6772C21.5529 19.8053 21.3527 19.996 21.2132 20.229C21.0736 20.462 21 20.7284 21 21V27C21 27.2716 21.0736 27.538 21.2132 27.771C21.3527 28.004 21.5529 28.1947 21.7924 28.3228C22.0318 28.4509 22.3015 28.5116 22.5728 28.4985C22.844 28.4853 23.1066 28.3987 23.3325 28.248L27.8325 25.248C28.0379 25.111 28.2064 24.9254 28.3229 24.7077C28.4394 24.49 28.5003 24.2469 28.5003 24C28.5003 23.7531 28.4394 23.51 28.3229 23.2923C28.2064 23.0746 28.0379 22.889 27.8325 22.752L23.3325 19.752Z" fill="#6B76F6"/>
</svg>
