<svg width="40" height="40" viewBox="0 0 40 40" fill="none" xmlns="http://www.w3.org/2000/svg">
<rect width="40" height="40" rx="20" fill="#6B76F6" fill-opacity="0.1"/>
<path d="M24.1875 15.75V19.55M24.1875 15.75C24.1875 14.4902 23.6936 13.282 22.8146 12.3912C21.9355 11.5004 20.7432 11 19.5 11C18.2568 11 17.0645 11.5004 16.1854 12.3912C15.3064 13.282 14.8125 14.4902 14.8125 15.75V19.55C14.8125 20.8098 15.3064 22.018 16.1854 22.9088C17.0645 23.7996 18.2568 24.3 19.5 24.3C20.7432 24.3 21.9355 23.7996 22.8146 22.9088C23.6936 22.018 24.1875 20.8098 24.1875 19.55M24.1875 15.75H21.375M24.1875 19.55H21.375M27 19.55C27 21.5656 26.2098 23.4987 24.8033 24.924C23.3968 26.3493 21.4891 27.15 19.5 27.15M19.5 27.15C17.5109 27.15 15.6032 26.3493 14.1967 24.924C12.7902 23.4987 12 21.5656 12 19.55M19.5 27.15V30M19.5 30H22.3125M19.5 30H16.6875" stroke="#6368D1" stroke-width="2" stroke-linecap="round" stroke-linejoin="round"/>
</svg>
