<svg width="50" height="50" viewBox="0 0 50 50" fill="none" xmlns="http://www.w3.org/2000/svg">
<rect x="1" y="1" width="48" height="48" rx="24" fill="white" fill-opacity="0.05"/>
<rect x="0.5" y="0.5" width="49" height="49" rx="24.5" stroke="white" stroke-opacity="0.1"/>
<path d="M20.8322 26.8456L29.18 31.7101M29.1678 18.2901L20.8322 23.1545M36 16.4445C36 18.4695 34.3584 20.1112 32.3333 20.1112C30.3083 20.1112 28.6667 18.4695 28.6667 16.4445C28.6667 14.4195 30.3083 12.7778 32.3333 12.7778C34.3584 12.7778 36 14.4195 36 16.4445ZM21.3333 25.0001C21.3333 27.0251 19.6917 28.6667 17.6667 28.6667C15.6416 28.6667 14 27.0251 14 25.0001C14 22.975 15.6416 21.3334 17.6667 21.3334C19.6917 21.3334 21.3333 22.975 21.3333 25.0001ZM36 33.5556C36 35.5807 34.3584 37.2223 32.3333 37.2223C30.3083 37.2223 28.6667 35.5807 28.6667 33.5556C28.6667 31.5306 30.3083 29.8889 32.3333 29.8889C34.3584 29.8889 36 31.5306 36 33.5556Z" stroke="url(#paint0_linear_2075_1543)" stroke-width="2" stroke-linecap="round" stroke-linejoin="round"/>
<defs>
<linearGradient id="paint0_linear_2075_1543" x1="25" y1="12.7778" x2="25" y2="37.2223" gradientUnits="userSpaceOnUse">
<stop stop-color="#6368D1"/>
<stop offset="1" stop-color="#6368D1" stop-opacity="0.4"/>
</linearGradient>
</defs>
</svg>
