<svg width="40" height="40" viewBox="0 0 40 40" fill="none" xmlns="http://www.w3.org/2000/svg">
<rect width="40" height="40" rx="20" fill="#6B76F6" fill-opacity="0.1"/>
<path d="M20.0406 18.0743V29M20.0406 18.0743L23.7754 21.7162M20.0406 18.0743L16.3058 21.7162M26.8877 24.1441C28.7787 24.1441 30 22.6498 30 20.8058C29.9999 20.0757 29.7545 19.3658 29.3012 18.7848C28.8479 18.2037 28.2117 17.7836 27.4902 17.5888C27.3792 16.2272 26.8005 14.942 25.8478 13.9409C24.895 12.9398 23.6238 12.2813 22.2398 12.0718C20.8557 11.8624 19.4396 12.1142 18.2205 12.7867C17.0014 13.4591 16.0505 14.5129 15.5215 15.7775C14.4078 15.4765 13.2171 15.6192 12.2113 16.1742C11.2055 16.7293 10.4671 17.6512 10.1584 18.7372C9.84964 19.8231 9.99598 20.9842 10.5652 21.965C11.1344 22.9458 12.0798 23.6659 13.1935 23.9669" stroke="#6368D1" stroke-width="2" stroke-linecap="round" stroke-linejoin="round"/>
</svg>
