<svg width="40" height="40" viewBox="0 0 40 40" fill="none" xmlns="http://www.w3.org/2000/svg">
<rect width="40" height="40" rx="20" fill="#6B76F6" fill-opacity="0.1"/>
<path d="M11 27.1595C10.9999 26.0698 11.2665 24.9964 11.777 24.0313C12.2874 23.0662 13.0265 22.2381 13.9309 21.6181C14.8353 20.9981 15.8779 20.6047 16.9694 20.4716C18.0609 20.3386 19.1687 20.4697 20.1978 20.854M27.4712 23.4757C27.8098 23.1402 28 22.6852 28 22.2108C28 21.7363 27.8098 21.2813 27.4712 20.9458C27.1326 20.6103 26.6733 20.4218 26.1945 20.4218C25.7156 20.4218 25.2564 20.6103 24.9178 20.9458L21.5093 24.3247C21.3072 24.5248 21.1593 24.7722 21.0792 25.0439L20.3678 27.461C20.3464 27.5335 20.3452 27.6103 20.3641 27.6834C20.383 27.7565 20.4214 27.8233 20.4753 27.8767C20.5291 27.93 20.5965 27.9681 20.6703 27.9868C20.7441 28.0056 20.8216 28.0043 20.8948 27.9832L23.3343 27.2782C23.6085 27.1989 23.8582 27.0523 24.0602 26.8521L27.4712 23.4757ZM22.0499 16.211C22.0499 18.5366 20.1471 20.4219 17.7999 20.4219C15.4528 20.4219 13.55 18.5366 13.55 16.211C13.55 13.8853 15.4528 12 17.7999 12C20.1471 12 22.0499 13.8853 22.0499 16.211Z" stroke="#6368D1" stroke-width="2" stroke-linecap="round" stroke-linejoin="round"/>
</svg>
